#N canvas 38 43 653 780 12;
#X obj 109 58 comport 1 115200;
#X obj 112 111 sel 13 10;
#X obj 148 165 makefilename %c;
#X msg 143 215 add2 \$1;
#X msg 231 309 set;
#X obj 124 364 t a b;
#X obj 122 405 list tosymbol;
#X text 104 265 comment;
#X msg 114 265;
#X obj 122 453 list fromsymbol;
#X obj 112 499 unpack f f f;
#X floatatom 10 542 5 0 0 0 - - - 0;
#X floatatom 34 580 5 0 0 0 - - - 0;
#X floatatom 65 616 5 0 0 0 - - - 0;
#X msg 227 18 devices;
#X obj 321 467 / 3000;
#X obj 317 506 lop~ 20;
#X obj 254 622 osc~;
#X obj 329 663 *~;
#X obj 318 699 dac~;
#X msg 369 385 3000;
#X msg 290 385 0;
#X floatatom 442 476 5 0 0 0 - - - 0;
#X obj 440 529 / 10;
#X obj 441 561 + 60;
#X obj 439 642 mtof;
#X obj 432 603 int;
#X connect 0 0 1 0;
#X connect 1 0 8 0;
#X connect 1 2 2 0;
#X connect 2 0 3 0;
#X connect 3 0 8 0;
#X connect 4 0 8 0;
#X connect 5 0 6 0;
#X connect 5 1 4 0;
#X connect 6 0 9 0;
#X connect 8 0 5 0;
#X connect 9 0 10 0;
#X connect 10 0 11 0;
#X connect 10 0 23 0;
#X connect 10 1 12 0;
#X connect 10 2 13 0;
#X connect 10 2 15 0;
#X connect 14 0 0 0;
#X connect 15 0 16 0;
#X connect 16 0 18 1;
#X connect 17 0 18 0;
#X connect 18 0 19 0;
#X connect 18 0 19 1;
#X connect 20 0 15 0;
#X connect 21 0 15 0;
#X connect 22 0 23 0;
#X connect 23 0 24 0;
#X connect 24 0 26 0;
#X connect 25 0 17 0;
#X connect 26 0 25 0;
